<?xml version="1.0" encoding="UTF-8" standalone="no"?>
<svg
   xmlns:dc="http://purl.org/dc/elements/1.1/"
   xmlns:cc="http://creativecommons.org/ns#"
   xmlns:rdf="http://www.w3.org/1999/02/22-rdf-syntax-ns#"
   xmlns:svg="http://www.w3.org/2000/svg"
   xmlns="http://www.w3.org/2000/svg"
   xmlns:sodipodi="http://sodipodi.sourceforge.net/DTD/sodipodi-0.dtd"
   xmlns:inkscape="http://www.inkscape.org/namespaces/inkscape"
   width="679.24176"
   height="165"
   viewBox="0 0 679.24176 165"
   version="1.1"
   id="svg437"
   sodipodi:docname="logo-light-horizontal.svg"
   inkscape:version="0.92.5 (2060ec1f9f, 2020-04-08)"
   inkscape:export-filename="/home/rguichard/logo/horizontal3.png"
   inkscape:export-xdpi="252.55746"
   inkscape:export-ydpi="252.55746">
  <metadata
     id="metadata443">
    <rdf:RDF>
      <cc:Work
         rdf:about="">
        <dc:format>image/svg+xml</dc:format>
        <dc:type
           rdf:resource="http://purl.org/dc/dcmitype/StillImage" />
        <dc:title>Artboard@2x</dc:title>
      </cc:Work>
    </rdf:RDF>
  </metadata>
  <defs
     id="defs441">
    <filter
       style="color-interpolation-filters:sRGB"
       inkscape:label="Colorize"
       id="filter1043">
      <feComposite
         in2="SourceGraphic"
         operator="arithmetic"
         k1="0"
         k2="1"
         result="composite1"
         id="feComposite1029"
         k3="0"
         k4="0" />
      <feColorMatrix
         in="composite1"
         values="1"
         type="saturate"
         result="colormatrix1"
         id="feColorMatrix1031" />
      <feFlood
         flood-opacity="0"
         flood-color="rgb(5,125,159)"
         result="flood1"
         id="feFlood1033" />
      <feBlend
         in="flood1"
         in2="colormatrix1"
         mode="multiply"
         result="blend1"
         id="feBlend1035" />
      <feBlend
         in2="blend1"
         mode="screen"
         result="blend2"
         id="feBlend1037" />
      <feColorMatrix
         in="blend2"
         values="1"
         type="saturate"
         result="colormatrix2"
         id="feColorMatrix1039" />
      <feComposite
         in="colormatrix2"
         in2="SourceGraphic"
         operator="in"
         result="fbSourceGraphic"
         id="feComposite1041" />
      <feColorMatrix
         result="fbSourceGraphicAlpha"
         in="fbSourceGraphic"
         values="0 0 0 -1 0 0 0 0 -1 0 0 0 0 -1 0 0 0 0 1 0"
         id="feColorMatrix1141" />
      <feComposite
         in2="fbSourceGraphic"
         id="feComposite1143"
         operator="arithmetic"
         k1="0"
         k2="1.38778e-16"
         result="composite1"
         in="fbSourceGraphic"
         k3="0"
         k4="0" />
      <feColorMatrix
         id="feColorMatrix1145"
         in="composite1"
         values="1"
         type="saturate"
         result="colormatrix1" />
      <feFlood
         id="feFlood1147"
         flood-opacity="1"
         flood-color="rgb(5,125,159)"
         result="flood1" />
      <feBlend
         in2="colormatrix1"
         id="feBlend1149"
         in="flood1"
         mode="normal"
         result="blend1" />
      <feBlend
         in2="blend1"
         id="feBlend1151"
         mode="normal"
         result="blend2" />
      <feColorMatrix
         id="feColorMatrix1153"
         in="blend2"
         values="1"
         type="saturate"
         result="colormatrix2" />
      <feComposite
         in2="fbSourceGraphic"
         id="feComposite1155"
         in="colormatrix2"
         operator="in"
         result="composite2" />
    </filter>
    <clipPath
       clipPathUnits="userSpaceOnUse"
       id="clipPath1167">
      <g
         id="use1169"
         inkscape:label="Clip">
        <g
           id="g4978"
           style="font-style:normal;font-weight:normal;font-size:48.19288254px;line-height:1.25;font-family:sans-serif;letter-spacing:0px;word-spacing:0px;fill:#ff2a2a;fill-opacity:1;stroke:none;filter:url(#filter1043)"
           transform="translate(39.827586,-8.63258)"
           aria-label="particule.">
          <path
             inkscape:connector-curvature="0"
             id="path4958"
             style="font-style:normal;font-variant:normal;font-weight:bold;font-stretch:normal;font-family:'Champagne &amp; Limousines';-inkscape-font-specification:'Champagne &amp; Limousines Bold';letter-spacing:2px;fill:#ff2a2a"
             d="m -54.588992,192.47878 h 4.259235 v 2.47083 q 2.51789,-4.21218 7.647796,-4.21218 5.129906,0 8.659659,3.52976 3.529752,3.50622 3.529752,8.37727 0,4.824 -3.529752,8.37728 -3.529753,3.52976 -8.659659,3.52976 -5.129906,0 -7.647796,-4.25924 v 11.17755 h -4.259235 z m 4.259235,8.35375 v 3.62387 q 0.42357,2.28258 2.188446,4.02392 2.306105,2.28257 5.45935,2.28257 3.153245,0 5.482882,-2.32963 2.353168,-2.35317 2.353168,-5.7888 0,-3.45915 -2.353168,-5.81232 -2.329637,-2.35317 -5.482882,-2.35317 -3.153245,0 -5.553477,2.40023 -1.670749,1.67075 -2.094319,3.95333 z" />
          <path
             inkscape:connector-curvature="0"
             id="path4960"
             style="font-style:normal;font-variant:normal;font-weight:bold;font-stretch:normal;font-family:'Champagne &amp; Limousines';-inkscape-font-specification:'Champagne &amp; Limousines Bold';letter-spacing:2px;fill:#ff2a2a"
             d="m -1.219333,213.98673 h -4.2592342 v -3.76506 q -2.5178899,4.32983 -7.6713278,4.32983 -5.106375,0 -8.659659,-3.52976 -3.529752,-3.55328 -3.529752,-8.37728 0,-4.87105 3.529752,-8.40081 3.553284,-3.52975 8.659659,-3.52975 5.1534379,0 7.6713278,4.28277 v -2.51789 h 4.2592342 z m -4.2592342,-9.64798 v -3.43563 q -0.447102,-2.32964 -2.141383,-4.02392 -2.3766998,-2.40023 -5.5299448,-2.40023 -3.176777,0 -5.506414,2.35317 -2.329636,2.35317 -2.329636,5.81232 0,3.43563 2.329636,5.76527 2.329637,2.32963 5.506414,2.32963 3.153245,0 5.5299448,-2.3767 1.694281,-1.69428 2.141383,-4.02391 z" />
          <path
             inkscape:connector-curvature="0"
             id="path4962"
             style="font-style:normal;font-variant:normal;font-weight:bold;font-stretch:normal;font-family:'Champagne &amp; Limousines';-inkscape-font-specification:'Champagne &amp; Limousines Bold';letter-spacing:2px;fill:#ff2a2a"
             d="m 15.064395,195.67909 q -2.917928,0.4471 -4.518082,2.32963 -1.6001546,1.85901 -1.6001546,4.68281 v 11.2952 H 4.6869242 v -21.50795 h 4.2592342 v 3.05912 q 0.9412673,-2.51789 4.0474496,-3.50622 z" />
          <path
             inkscape:connector-curvature="0"
             id="path4964"
             style="font-style:normal;font-variant:normal;font-weight:bold;font-stretch:normal;font-family:'Champagne &amp; Limousines';-inkscape-font-specification:'Champagne &amp; Limousines Bold';letter-spacing:2px;fill:#ff2a2a"
             d="m 23.041447,192.47878 v -8.35375 h 4.235703 v 8.35375 h 4.000386 v 3.67094 H 27.27715 v 17.83701 h -4.235703 v -17.83701 h -4.000385 v -3.67094 z" />
          <path
             inkscape:connector-curvature="0"
             id="path4966"
             style="font-style:normal;font-variant:normal;font-weight:bold;font-stretch:normal;font-family:'Champagne &amp; Limousines';-inkscape-font-specification:'Champagne &amp; Limousines Bold';letter-spacing:2px;fill:#ff2a2a"
             d="m 41.019457,192.47878 v 21.50795 h -4.235702 v -21.50795 z m -2.094319,-6.96538 q 1.294242,0 2.141383,0.84714 0.870672,0.82361 0.870672,1.859 0,1.08246 -0.870672,1.9296 -0.847141,0.82361 -2.141383,0.82361 -1.341306,0 -2.188447,-0.82361 -0.84714,-0.84714 -0.84714,-1.9296 0,-1.03539 0.84714,-1.859 0.847141,-0.84714 2.188447,-0.84714 z" />
          <path
             inkscape:connector-curvature="0"
             id="path4968"
             style="font-style:normal;font-variant:normal;font-weight:bold;font-stretch:normal;font-family:'Champagne &amp; Limousines';-inkscape-font-specification:'Champagne &amp; Limousines Bold';letter-spacing:2px;fill:#ff2a2a"
             d="m 65.798125,207.11548 4.047449,1.4825 q -1.200116,1.62369 -1.906066,2.35317 -3.576816,3.60035 -8.730254,3.60035 -5.106375,0 -8.659658,-3.52976 -3.529753,-3.55328 -3.529753,-8.40081 0,-4.84752 3.529753,-8.37728 3.553283,-3.52975 8.659658,-3.52975 5.153438,0 8.636127,3.48269 0.800077,0.80008 2.000193,2.42376 l -4.047449,1.50603 q -0.847141,-1.05892 -1.153053,-1.38837 -2.282573,-2.25904 -5.435818,-2.25904 -3.153245,0 -5.482882,2.35317 -2.329636,2.32964 -2.329636,5.78879 0,3.43563 2.329636,5.7888 2.329637,2.32963 5.482882,2.32963 3.153245,0 5.529945,-2.3767 0.211785,-0.21178 1.058926,-1.24718 z" />
          <path
             inkscape:connector-curvature="0"
             id="path4970"
             style="font-style:normal;font-variant:normal;font-weight:bold;font-stretch:normal;font-family:'Champagne &amp; Limousines';-inkscape-font-specification:'Champagne &amp; Limousines Bold';letter-spacing:2px;fill:#ff2a2a"
             d="m 84.435016,214.26912 q -4.282766,0 -6.777124,-2.49436 -2.470827,-2.49436 -2.541422,-6.11824 v -13.20127 h 4.259234 v 13.03655 q 0,2.16491 1.52956,3.67094 1.435432,1.43543 3.50622,1.43543 1.882535,0 3.36503,-1.45896 1.482496,-1.4825 1.482496,-3.64741 v -13.03655 h 4.259235 v 13.20127 q -0.07059,3.62388 -2.588485,6.1653 -2.447295,2.4473 -6.494744,2.4473 z" />
          <path
             inkscape:connector-curvature="0"
             id="path4972"
             style="font-style:normal;font-variant:normal;font-weight:bold;font-stretch:normal;font-family:'Champagne &amp; Limousines';-inkscape-font-specification:'Champagne &amp; Limousines Bold';letter-spacing:2px;fill:#ff2a2a"
             d="m 104.41323,180.12465 v 33.86208 h -4.25924 v -33.86208 z" />
          <path
             inkscape:connector-curvature="0"
             id="path4974"
             style="font-style:normal;font-variant:normal;font-weight:bold;font-stretch:normal;font-family:'Champagne &amp; Limousines';-inkscape-font-specification:'Champagne &amp; Limousines Bold';letter-spacing:2px;fill:#ff2a2a"
             d="m 115.33173,198.85586 h 14.09548 q -1.50603,-4.37689 -7.01244,-4.37689 -5.52995,0 -7.08304,4.37689 z m -0.75301,3.71801 v 0.0706 q 0,3.43563 2.32963,5.76527 2.32964,2.32963 5.50642,2.32963 3.15324,0 5.52994,-2.3767 0.32945,-0.32944 1.27071,-1.48249 l 4.00039,1.4119 q -0.89421,1.50603 -2.07079,2.65908 -3.57681,3.60035 -8.73025,3.60035 -5.10638,0 -8.65966,-3.52976 -3.52975,-3.55328 -3.52975,-8.37728 0,-4.87105 3.52975,-8.40081 3.55328,-3.52975 8.65966,-3.52975 5.15344,0 8.73025,3.57682 3.08265,3.10618 3.08265,8.28315 z" />
          <path
             inkscape:connector-curvature="0"
             id="path4976"
             style="font-style:normal;font-variant:normal;font-weight:bold;font-stretch:normal;font-family:'Champagne &amp; Limousines';-inkscape-font-specification:'Champagne &amp; Limousines Bold';letter-spacing:2px;fill:#ff2a2a"
             d="m 139.68682,208.80977 q 1.29425,0 2.14139,0.84714 0.87067,0.8236 0.87067,1.88253 0,1.05893 -0.87067,1.90607 -0.84714,0.82361 -2.14139,0.82361 -1.3413,0 -2.18844,-0.82361 -0.84714,-0.84714 -0.84714,-1.90607 0,-1.05893 0.84714,-1.88253 0.84714,-0.84714 2.18844,-0.84714 z" />
        </g>
      </g>
    </clipPath>
    <filter
       style="color-interpolation-filters:sRGB"
       inkscape:label="Colorize"
       id="filter5004">
      <feComposite
         in2="SourceGraphic"
         operator="arithmetic"
         k1="0"
         k2="1.38778e-16"
         result="composite1"
         id="feComposite4990"
         k3="0"
         k4="0" />
      <feColorMatrix
         in="composite1"
         values="1"
         type="saturate"
         result="colormatrix1"
         id="feColorMatrix4992" />
      <feFlood
         flood-opacity="1"
         flood-color="rgb(5,125,159)"
         result="flood1"
         id="feFlood4994" />
      <feBlend
         in="flood1"
         in2="colormatrix1"
         mode="normal"
         result="blend1"
         id="feBlend4996" />
      <feBlend
         in2="blend1"
         mode="normal"
         result="blend2"
         id="feBlend4998" />
      <feColorMatrix
         in="blend2"
         values="1"
         type="saturate"
         result="colormatrix2"
         id="feColorMatrix5000" />
      <feComposite
         in="colormatrix2"
         in2="SourceGraphic"
         operator="in"
         result="fbSourceGraphic"
         id="feComposite5002" />
      <feColorMatrix
         result="fbSourceGraphicAlpha"
         in="fbSourceGraphic"
         values="0 0 0 -1 0 0 0 0 -1 0 0 0 0 -1 0 0 0 0 1 0"
         id="feColorMatrix5022" />
      <feComposite
         in2="fbSourceGraphic"
         id="feComposite5024"
         operator="arithmetic"
         k1="0"
         k2="1.38778e-16"
         result="composite1"
         in="fbSourceGraphic"
         k3="0"
         k4="0" />
      <feColorMatrix
         id="feColorMatrix5026"
         in="composite1"
         values="1"
         type="saturate"
         result="colormatrix1" />
      <feFlood
         id="feFlood5028"
         flood-opacity="1"
         flood-color="rgb(5,125,159)"
         result="flood1" />
      <feBlend
         in2="colormatrix1"
         id="feBlend5030"
         in="flood1"
         mode="normal"
         result="blend1" />
      <feBlend
         in2="blend1"
         id="feBlend5032"
         mode="normal"
         result="blend2" />
      <feColorMatrix
         id="feColorMatrix5034"
         in="blend2"
         values="1"
         type="saturate"
         result="colormatrix2" />
      <feComposite
         in2="fbSourceGraphic"
         id="feComposite5036"
         in="colormatrix2"
         operator="in"
         result="composite2" />
    </filter>
    <filter
       style="color-interpolation-filters:sRGB"
       inkscape:label="Colorize"
       id="filter5076">
      <feComposite
         in2="SourceGraphic"
         operator="arithmetic"
         k1="0"
         k2="1.38778e-16"
         result="composite1"
         id="feComposite5062"
         k3="0"
         k4="0" />
      <feColorMatrix
         in="composite1"
         values="1"
         type="saturate"
         result="colormatrix1"
         id="feColorMatrix5064" />
      <feFlood
         flood-opacity="1"
         flood-color="rgb(5,125,159)"
         result="flood1"
         id="feFlood5066" />
      <feBlend
         in="flood1"
         in2="colormatrix1"
         mode="normal"
         result="blend1"
         id="feBlend5068" />
      <feBlend
         in2="blend1"
         mode="normal"
         result="blend2"
         id="feBlend5070" />
      <feColorMatrix
         in="blend2"
         values="1"
         type="saturate"
         result="colormatrix2"
         id="feColorMatrix5072" />
      <feComposite
         in="colormatrix2"
         in2="SourceGraphic"
         operator="in"
         result="fbSourceGraphic"
         id="feComposite5074" />
      <feColorMatrix
         result="fbSourceGraphicAlpha"
         in="fbSourceGraphic"
         values="0 0 0 -1 0 0 0 0 -1 0 0 0 0 -1 0 0 0 0 1 0"
         id="feColorMatrix5078" />
      <feComposite
         in2="fbSourceGraphic"
         id="feComposite5080"
         operator="arithmetic"
         k1="0"
         k2="1.38778e-16"
         result="composite1"
         in="fbSourceGraphic"
         k3="0"
         k4="0" />
      <feColorMatrix
         id="feColorMatrix5082"
         in="composite1"
         values="1"
         type="saturate"
         result="colormatrix1" />
      <feFlood
         id="feFlood5084"
         flood-opacity="1"
         flood-color="rgb(5,125,159)"
         result="flood1" />
      <feBlend
         in2="colormatrix1"
         id="feBlend5086"
         in="flood1"
         mode="normal"
         result="blend1" />
      <feBlend
         in2="blend1"
         id="feBlend5088"
         mode="normal"
         result="blend2" />
      <feColorMatrix
         id="feColorMatrix5090"
         in="blend2"
         values="1"
         type="saturate"
         result="colormatrix2" />
      <feComposite
         in2="fbSourceGraphic"
         id="feComposite5092"
         in="colormatrix2"
         operator="in"
         result="composite2" />
    </filter>
  </defs>
  <sodipodi:namedview
     pagecolor="#ffffff"
     bordercolor="#666666"
     borderopacity="1"
     objecttolerance="10"
     gridtolerance="10"
     guidetolerance="10"
     inkscape:pageopacity="0"
     inkscape:pageshadow="2"
     inkscape:window-width="1920"
     inkscape:window-height="1056"
     id="namedview439"
     showgrid="true"
     inkscape:zoom="1.92"
     inkscape:cx="303.01171"
     inkscape:cy="91.635943"
     inkscape:window-x="0"
     inkscape:window-y="24"
     inkscape:window-maximized="0"
     inkscape:current-layer="svg437"
     inkscape:pagecheckerboard="true">
    <inkscape:grid
       type="xygrid"
       id="grid1157"
       originx="1.4e-07"
       originy="-8.5e-06" />
  </sodipodi:namedview>
  <!-- Generator: Sketch 61.2 (89653) - https://sketch.com -->
  <title
     id="title430">Artboard@2x</title>
  <desc
     id="desc432">Created with Sketch.</desc>
  <path
     style="fill:#ffffff;fill-opacity:1;stroke-width:1.10076439"
     d="M 82.5 0 A 82.5 82.5 0 0 0 31.226562 17.867188 A 82.5 82.5 0 0 0 31.210938 17.880859 A 82.5 82.5 0 0 0 25.103516 23.246094 C 25.056592 23.291555 25.009707 23.337241 24.962891 23.382812 A 82.5 82.5 0 0 0 20.328125 28.355469 L 73.529297 28.355469 L 86.076172 0.1796875 A 82.5 82.5 0 0 0 82.5 0 z M 98.578125 1.5976562 L 86.664062 28.355469 L 144.61133 28.355469 A 82.5 82.5 0 0 0 141.85547 25.220703 C 141.7167 25.076941 141.57534 24.935723 141.43555 24.792969 A 82.5 82.5 0 0 0 135.83789 19.576172 C 135.73304 19.487203 135.63069 19.395094 135.52539 19.306641 A 82.5 82.5 0 0 0 129.15039 14.462891 C 129.09208 14.42283 129.03303 14.383664 128.97461 14.34375 A 82.5 82.5 0 0 0 122.05273 10.099609 A 82.5 82.5 0 0 0 98.578125 1.5976562 z M 11.689453 40.355469 A 82.5 82.5 0 0 0 0 82.5 A 82.5 82.5 0 0 0 0.19726562 88.046875 C 0.20910251 88.225049 0.2233617 88.402215 0.23632812 88.580078 A 82.5 82.5 0 0 0 1.25 96.742188 L 52.830078 74.845703 L 68.185547 40.355469 L 11.689453 40.355469 z M 81.322266 40.355469 L 69.027344 67.970703 L 134.08398 40.355469 L 81.322266 40.355469 z M 155.56445 44.273438 L 61.869141 84.044922 L 33.171875 148.50195 A 82.5 82.5 0 0 0 42.947266 154.90039 A 82.5 82.5 0 0 0 74.048828 164.55469 C 74.184353 164.56849 74.31936 164.58451 74.455078 164.59766 A 82.5 82.5 0 0 0 82.5 165 A 82.5 82.5 0 0 0 88.304688 164.79492 C 88.31509 164.7942 88.325537 164.7937 88.335938 164.79297 A 82.5 82.5 0 0 0 88.351562 164.79102 A 82.5 82.5 0 0 0 112.38672 159.39453 C 112.3892 159.39357 112.39205 159.39354 112.39453 159.39258 A 82.5 82.5 0 0 0 112.40234 159.38867 A 82.5 82.5 0 0 0 119.80273 156.07812 C 119.88479 156.03644 119.96693 155.99508 120.04883 155.95312 A 82.5 82.5 0 0 0 126.83594 152.05859 C 126.98844 151.96119 127.14115 151.86401 127.29297 151.76562 A 82.5 82.5 0 0 0 133.41992 147.38477 C 133.63281 147.21747 133.8474 147.05215 134.05859 146.88281 A 82.5 82.5 0 0 0 139.60547 142.00977 C 139.80744 141.81591 140.0129 141.62557 140.21289 141.42969 A 82.5 82.5 0 0 0 145.31836 135.94922 C 145.4576 135.78573 145.60226 135.62747 145.74023 135.46289 A 82.5 82.5 0 0 0 150.53711 129.15234 C 150.56147 129.11689 150.58703 129.08237 150.61133 129.04688 A 82.5 82.5 0 0 0 165 82.5 A 82.5 82.5 0 0 0 164.79688 76.773438 C 164.79213 76.704301 164.78616 76.635496 164.78125 76.566406 A 82.5 82.5 0 0 0 155.56445 44.273438 z M 45.673828 90.919922 L 4.3066406 108.48047 A 82.5 82.5 0 0 0 17.830078 133.7207 C 17.867181 133.76748 17.906157 133.81268 17.943359 133.85938 A 82.5 82.5 0 0 0 23.248047 139.89844 C 23.290663 139.94242 23.332287 139.98736 23.375 140.03125 A 82.5 82.5 0 0 0 23.679688 140.31641 L 45.673828 90.919922 z M 93 121 C 97.970563 121 102 125.02944 102 130 C 102 134.97056 97.970563 139 93 139 C 88.029437 139 84 134.97056 84 130 C 84 125.02944 88.029437 121 93 121 z "
     id="path907" />
  <flowRoot
     xml:space="preserve"
     id="flowRoot1005"
     style="font-style:normal;font-weight:normal;font-size:64px;line-height:1.25;font-family:sans-serif;letter-spacing:0px;word-spacing:0px;fill:#000000;fill-opacity:1;stroke:none"
     transform="translate(4.8022402,-15.27986)"><flowRegion
       id="flowRegion1007"
       style="font-size:64px"><rect
         id="rect1009"
         width="202.56737"
         height="54.134384"
         x="-6.9850817"
         y="173.73135"
         style="font-size:64px" /></flowRegion><flowPara
       id="flowPara1011"
       style="font-style:normal;font-variant:normal;font-weight:bold;font-stretch:normal;font-size:64px;font-family:'Champagne &amp; Limousines';-inkscape-font-specification:'Champagne &amp; Limousines Bold';text-align:start;letter-spacing:1.99000001px;text-anchor:start">particule.</flowPara></flowRoot>  <flowRoot
     xml:space="preserve"
     id="flowRoot1013"
     style="font-style:normal;font-weight:normal;font-size:40px;line-height:1.25;font-family:sans-serif;letter-spacing:0px;word-spacing:0px;fill:#000000;fill-opacity:1;stroke:none"><flowRegion
       id="flowRegion1015"><rect
         id="rect1017"
         width="216.31924"
         height="115.47213"
         x="-0.2182838"
         y="172.63994" /></flowRegion><flowPara
       id="flowPara1019" /></flowRoot>  <g
     aria-label="particule. "
     transform="translate(-12.217195,-61.839836)"
     style="font-style:normal;font-weight:normal;font-size:40px;line-height:1.25;font-family:sans-serif;letter-spacing:0px;word-spacing:0px;fill:#ffffff;fill-opacity:1;stroke:none"
     id="flowRoot5050">
    <path
       d="m 200.39062,123.60667 h 10.60547 v 6.15234 q 6.26953,-10.48828 19.04297,-10.48828 12.77344,0 21.5625,8.78906 8.78906,8.73047 8.78906,20.85938 0,12.01172 -8.78906,20.85937 -8.78906,8.78906 -21.5625,8.78906 -12.77344,0 -19.04297,-10.60546 v 27.83203 h -10.60547 z m 10.60547,20.80078 v 9.02344 q 1.05469,5.68359 5.44922,10.01953 5.74219,5.68359 13.59375,5.68359 7.85156,0 13.65235,-5.80078 5.85937,-5.85938 5.85937,-14.41406 0,-8.61328 -5.85937,-14.47266 -5.80079,-5.85937 -13.65235,-5.85937 -7.85156,0 -13.82812,5.97656 -4.16016,4.16015 -5.21485,9.84375 z"
       style="font-style:normal;font-variant:normal;font-weight:bold;font-stretch:normal;font-size:120px;font-family:'Champagne &amp; Limousines';-inkscape-font-specification:'Champagne &amp; Limousines Bold';fill:#ffffff;fill-opacity:1"
       id="path5173" />
    <path
       d="m 328.30078,177.16135 h -10.60547 v -9.375 q -6.26953,10.78125 -19.10156,10.78125 -12.71484,0 -21.5625,-8.78906 -8.78906,-8.84765 -8.78906,-20.85937 0,-12.12891 8.78906,-20.91797 8.84766,-8.78906 21.5625,-8.78906 12.83203,0 19.10156,10.66406 v -6.26953 h 10.60547 z m -10.60547,-24.02343 v -8.55469 q -1.11328,-5.80078 -5.33203,-10.01953 -5.91797,-5.97656 -13.76953,-5.97656 -7.91016,0 -13.71094,5.85937 -5.80078,5.85938 -5.80078,14.47266 0,8.55468 5.80078,14.35547 5.80078,5.80078 13.71094,5.80078 7.85156,0 13.76953,-5.91797 4.21875,-4.21875 5.33203,-10.01953 z"
       style="font-style:normal;font-variant:normal;font-weight:bold;font-stretch:normal;font-size:120px;font-family:'Champagne &amp; Limousines';-inkscape-font-specification:'Champagne &amp; Limousines Bold';fill:#ffffff;fill-opacity:1"
       id="path5175" />
    <path
       d="m 363.86719,131.57542 q -7.26563,1.11328 -11.25,5.80078 -3.98438,4.6289 -3.98438,11.66015 v 28.125 h -10.60547 v -53.55468 h 10.60547 v 7.61718 q 2.34375,-6.26953 10.07813,-8.73046 z"
       style="font-style:normal;font-variant:normal;font-weight:bold;font-stretch:normal;font-size:120px;font-family:'Champagne &amp; Limousines';-inkscape-font-specification:'Champagne &amp; Limousines Bold';fill:#ffffff;fill-opacity:1"
       id="path5177" />
    <path
       d="m 378.75,123.60667 v -20.80078 h 10.54687 v 20.80078 h 9.96094 v 9.14062 h -9.96094 v 44.41406 H 378.75 v -44.41406 h -9.96094 v -9.14062 z"
       style="font-style:normal;font-variant:normal;font-weight:bold;font-stretch:normal;font-size:120px;font-family:'Champagne &amp; Limousines';-inkscape-font-specification:'Champagne &amp; Limousines Bold';fill:#ffffff;fill-opacity:1"
       id="path5179" />
    <path
       d="m 418.53516,123.60667 v 53.55468 h -10.54688 v -53.55468 z m -5.21485,-17.34375 q 3.22266,0 5.33203,2.10937 2.16797,2.05078 2.16797,4.62891 0,2.69531 -2.16797,4.80469 -2.10937,2.05078 -5.33203,2.05078 -3.33984,0 -5.44922,-2.05078 -2.10937,-2.10938 -2.10937,-4.80469 0,-2.57813 2.10937,-4.62891 2.10938,-2.10937 5.44922,-2.10937 z"
       style="font-style:normal;font-variant:normal;font-weight:bold;font-stretch:normal;font-size:120px;font-family:'Champagne &amp; Limousines';-inkscape-font-specification:'Champagne &amp; Limousines Bold';fill:#ffffff;fill-opacity:1"
       id="path5181" />
    <path
       d="m 475.25391,160.05198 10.07812,3.69141 q -2.98828,4.04296 -4.74609,5.85937 -8.90625,8.96484 -21.73828,8.96484 -12.71485,0 -21.5625,-8.78906 -8.78907,-8.84765 -8.78907,-20.91797 0,-12.07031 8.78907,-20.85937 8.84765,-8.78906 21.5625,-8.78906 12.83203,0 21.5039,8.67187 1.99219,1.99219 4.98047,6.03516 l -10.07812,3.75 q -2.10938,-2.63672 -2.8711,-3.45703 -5.68359,-5.625 -13.53515,-5.625 -7.85157,0 -13.65235,5.85937 -5.80078,5.80078 -5.80078,14.41406 0,8.55469 5.80078,14.41407 5.80078,5.80078 13.65235,5.80078 7.85156,0 13.76953,-5.91797 0.52734,-0.52735 2.63672,-3.10547 z"
       style="font-style:normal;font-variant:normal;font-weight:bold;font-stretch:normal;font-size:120px;font-family:'Champagne &amp; Limousines';-inkscape-font-specification:'Champagne &amp; Limousines Bold';fill:#ffffff;fill-opacity:1"
       id="path5183" />
    <path
       d="m 516.67969,177.86448 q -10.66407,0 -16.875,-6.21094 -6.15235,-6.21094 -6.32813,-15.23437 v -32.8711 h 10.60547 v 32.46094 q 0,5.39063 3.80859,9.14063 3.57422,3.57421 8.73047,3.57421 4.6875,0 8.37891,-3.63281 3.69141,-3.6914 3.69141,-9.08203 v -32.46094 h 10.60546 v 32.8711 q -0.17578,9.02343 -6.44531,15.35156 -6.09375,6.09375 -16.17187,6.09375 z"
       style="font-style:normal;font-variant:normal;font-weight:bold;font-stretch:normal;font-size:120px;font-family:'Champagne &amp; Limousines';-inkscape-font-specification:'Champagne &amp; Limousines Bold';fill:#ffffff;fill-opacity:1"
       id="path5185" />
    <path
       d="M 561.44531,92.844948 V 177.16135 H 550.83984 V 92.844948 Z"
       style="font-style:normal;font-variant:normal;font-weight:bold;font-stretch:normal;font-size:120px;font-family:'Champagne &amp; Limousines';-inkscape-font-specification:'Champagne &amp; Limousines Bold';fill:#ffffff;fill-opacity:1"
       id="path5187" />
    <path
       d="M 583.65234,139.48557 H 618.75 q -3.75,-10.89843 -17.46094,-10.89843 -13.76953,0 -17.63672,10.89843 z m -1.875,9.25782 v 0.17578 q 0,8.55468 5.80078,14.35547 5.80079,5.80078 13.71094,5.80078 7.85156,0 13.76953,-5.91797 0.82032,-0.82031 3.16407,-3.69141 l 9.96093,3.51563 q -2.22656,3.75 -5.15625,6.62109 -8.90625,8.96484 -21.73828,8.96484 -12.71484,0 -21.5625,-8.78906 -8.78906,-8.84765 -8.78906,-20.85937 0,-12.12891 8.78906,-20.91797 8.84766,-8.78906 21.5625,-8.78906 12.83203,0 21.73828,8.90625 7.67578,7.73437 7.67578,20.625 z"
       style="font-style:normal;font-variant:normal;font-weight:bold;font-stretch:normal;font-size:120px;font-family:'Champagne &amp; Limousines';-inkscape-font-specification:'Champagne &amp; Limousines Bold';fill:#ffffff;fill-opacity:1"
       id="path5189" />
    <path
       d="m 645.39062,162.12229 q 3.75977,0 6.22071,2.46094 2.52929,2.39258 2.52929,5.46875 0,3.07617 -2.52929,5.53711 -2.46094,2.39258 -6.22071,2.39258 -3.89648,0 -6.35742,-2.39258 -2.46093,-2.46094 -2.46093,-5.53711 0,-3.07617 2.46093,-5.46875 2.46094,-2.46094 6.35742,-2.46094 z"
       style="font-size:140px;fill:#ffffff;fill-opacity:1"
       id="path5191" />
  </g>
</svg>
